<?xml version="1.0" encoding="utf-8"?>
<!-- Generator: Adobe Illustrator 16.0.0, SVG Export Plug-In . SVG Version: 6.00 Build 0)  -->
<!DOCTYPE svg PUBLIC "-//W3C//DTD SVG 1.1//EN" "http://www.w3.org/Graphics/SVG/1.1/DTD/svg11.dtd">
<svg version="1.1" id="Layer_1" xmlns="http://www.w3.org/2000/svg" xmlns:xlink="http://www.w3.org/1999/xlink" x="0px" y="0px"
	 width="516.5px" height="225px" viewBox="0 0 516.5 225" enable-background="new 0 0 516.5 225" xml:space="preserve">
<g>
	<path fill="#414042" d="M-911.5,77.848c0,2.2-1.8,4-4,4h-396.078c-2.2,0-4-1.8-4-4v-10c0-2.2,1.8-4,4-4H-915.5c2.2,0,4,1.8,4,4
		V77.848z"/>
</g>
<g>
	<path fill="#414042" d="M-914.875,219.314c0,2.199-1.8,4-4,4h-392.703c-2.2,0-4-1.801-4-4v-10c0-2.201,1.8-4,4-4h392.703
		c2.2,0,4,1.799,4,4V219.314z"/>
</g>
<g>
	<path fill="#414042" d="M-1302.765,219.314c0,2.201-1.8,4-4,4h-21.999c-2.199,0-4-1.799-4-4V67.848c0-2.2,1.801-4,4-4h21.999
		c2.2,0,4,1.8,4,4V219.314z"/>
</g>
<g>
	<path fill="#414042" d="M-1344.374,219.314c0,2.199-1.801,4-4,4h-21.999c-2.2,0-4-1.801-4-4V46.837c0-2.2,1.8-4,4-4h21.999
		c2.199,0,4,1.8,4,4V219.314z"/>
</g>
<g>
	<path fill="#414042" d="M-1253.206,219.314c0,2.199-1.801,4-4,4h-22c-2.2,0-4-1.801-4-4V67.848c0-2.2,1.8-4,4-4h22
		c2.199,0,4,1.8,4,4V219.314z"/>
</g>
<g>
	<path fill="#414042" d="M-1203.445,219.314c0,2.199-1.8,4-4,4h-22c-2.2,0-4-1.801-4-4V67.848c0-2.2,1.8-4,4-4h22c2.2,0,4,1.8,4,4
		V219.314z"/>
</g>
<g>
	<path fill="#414042" d="M-1153.608,219.314c0,2.201-1.8,4-4,4h-22c-2.2,0-4-1.799-4-4V67.849c0-2.2,1.8-4,4-4h22c2.2,0,4,1.8,4,4
		V219.314z"/>
</g>
<g>
	<path fill="#414042" d="M-1102.748,219.314c0,2.201-1.801,4-4,4h-22c-2.2,0-4-1.799-4-4V67.849c0-2.2,1.8-4,4-4h22
		c2.199,0,4,1.8,4,4V219.314z"/>
</g>
<g>
	<path fill="#414042" d="M-1053.389,219.314c0,2.201-1.8,4-4,4h-22c-2.199,0-4-1.799-4-4V67.85c0-2.2,1.801-4,4-4h22
		c2.2,0,4,1.8,4,4V219.314z"/>
</g>
<g>
	<path fill="#414042" d="M-1003.227,219.316c0,2.199-1.8,4-4,4h-22c-2.2,0-4-1.801-4-4V67.85c0-2.2,1.8-4,4-4h22c2.2,0,4,1.8,4,4
		V219.316L-1003.227,219.316z"/>
</g>
<g>
	<path fill="#414042" d="M-953.39,219.316c0,2.199-1.8,4-4,4h-22c-2.199,0-4-1.801-4-4V67.85c0-2.2,1.801-4,4-4h22c2.2,0,4,1.8,4,4
		V219.316z"/>
</g>
<g>
	<path fill="#414042" d="M-903.5,219.316c0,2.199-1.8,4-4,4h-22c-2.2,0-4-1.801-4-4V67.85c0-2.2,1.8-4,4-4h22c2.2,0,4,1.8,4,4
		V219.316z"/>
</g>
<g>
	<path fill="#414042" d="M-860.477,219.316c0,2.199-1.8,4-4,4h-22c-2.2,0-4-1.801-4-4V46.837c0-2.2,1.8-4,4-4h22c2.2,0,4,1.8,4,4
		V219.316z"/>
</g>
<g>
	<path fill="#414042" d="M-435,365.848c0,2.201-1.8,4-4,4h-386.578c-2.2,0-4-1.799-4-4v-10c0-2.199,1.8-4,4-4H-439
		c2.2,0,4,1.801,4,4V365.848z"/>
</g>
<g>
	<path fill="#414042" d="M-432.5,507.314c0,2.199-1.8,4-4,4h-389.078c-2.2,0-4-1.801-4-4v-10c0-2.201,1.8-4,4-4H-436.5
		c2.2,0,4,1.799,4,4V507.314z"/>
</g>
<g>
	<path fill="#414042" d="M-816.765,507.314c0,2.201-1.8,4-4,4h-21.999c-2.199,0-4-1.799-4-4V355.848c0-2.199,1.801-4,4-4h21.999
		c2.2,0,4,1.801,4,4V507.314z"/>
</g>
<g>
	<path fill="#414042" d="M-1344.374,507.314c0,2.199-1.801,4-4,4h-21.999c-2.2,0-4-1.801-4-4V334.838c0-2.201,1.8-4,4-4h21.999
		c2.199,0,4,1.799,4,4V507.314z"/>
</g>
<g>
	<path fill="#414042" d="M-767.205,507.314c0,2.199-1.801,4-4,4h-22c-2.201,0-4-1.801-4-4V355.848c0-2.199,1.799-4,4-4h22
		c2.199,0,4,1.801,4,4V507.314z"/>
</g>
<g>
	<path fill="#414042" d="M-717.445,507.314c0,2.199-1.799,4-4,4h-22c-2.199,0-4-1.801-4-4V355.848c0-2.199,1.801-4,4-4h22
		c2.201,0,4,1.801,4,4V507.314z"/>
</g>
<g>
	<path fill="#414042" d="M-667.607,507.314c0,2.201-1.801,4-4,4h-22c-2.201,0-4-1.799-4-4V355.85c0-2.201,1.799-4,4-4h22
		c2.199,0,4,1.799,4,4V507.314z"/>
</g>
<g>
	<path fill="#414042" d="M-616.748,507.314c0,2.201-1.799,4-4,4h-22c-2.199,0-4-1.799-4-4V355.85c0-2.201,1.801-4,4-4h22
		c2.201,0,4,1.799,4,4V507.314z"/>
</g>
<g>
	<path fill="#414042" d="M-567.389,507.314c0,2.201-1.801,4-4,4h-22c-2.2,0-4-1.799-4-4V355.85c0-2.199,1.8-4,4-4h22
		c2.199,0,4,1.801,4,4V507.314z"/>
</g>
<g>
	<path fill="#414042" d="M-517.227,507.316c0,2.199-1.8,4-4,4h-22c-2.2,0-4-1.801-4-4V355.85c0-2.199,1.8-4,4-4h22
		c2.2,0,4,1.801,4,4V507.316z"/>
</g>
<g>
	<path fill="#414042" d="M-467.39,507.316c0,2.199-1.8,4-4,4h-22c-2.199,0-4-1.801-4-4V355.85c0-2.199,1.801-4,4-4h22
		c2.2,0,4,1.801,4,4V507.316z"/>
</g>
<g>
	<path fill="#414042" d="M-417.5,507.316c0,2.199-1.801,4-4,4h-22c-2.201,0-4-1.801-4-4V355.85c0-2.199,1.799-4,4-4h22
		c2.199,0,4,1.801,4,4V507.316z"/>
</g>
<g>
	<path fill="#414042" d="M-860.477,507.316c0,2.199-1.8,4-4,4h-22c-2.2,0-4-1.801-4-4V334.838c0-2.201,1.8-4,4-4h22
		c2.2,0,4,1.799,4,4V507.316z"/>
</g>
<g>
	<path fill="#414042" d="M31.272,177.562c0,2.201-1.8,4-4,4H5.273c-2.199,0-4-1.799-4-4V5.086c0-2.2,1.801-4,4-4h21.999
		c2.2,0,4,1.8,4,4V177.562z"/>
</g>
<g>
	<path fill="#414042" d="M468.146,22.099c-2.2,0-4,0-4-0.001s-1.8-0.001-4-0.001H176.201c-2.2,0-5.801,0-8,0h-22c-2.2,0-5.801,0-8,0
		h-11.761c-2.199,0-5.8,0-8,0h-22c-2.199,0-5.8,0-8,0h-11.56c-2.2,0-5.8,0-8,0h-4.812c-2.199,0-5.8,0-8,0h-9.186c-2.2,0-4,1.8-4,4
		v151.465c0,2.201,1.8,4,4,4h9.186c2.2,0,5.801,0,8,0h4.812c2.2,0,5.8,0,8,0h11.561c2.2,0,5.801,0,8,0h22c2.2,0,5.801,0,8,0h11.761
		c2.199,0,5.8,0,8,0h22c2.199,0,5.8,0,8,0h11.838c2.199,0,5.8,0,8,0h22c2.199,0,5.8,0,8,0h12.858c2.2,0,5.8,0,8,0h22
		c2.2,0,5.8,0,8,0h11.359c2.2,0,4,0,4,0s1.8,0,4,0h22c2.2,0,4,0,4,0s1.8,0,4,0h12.162c2.2,0,4,0,4,0.002c0,0,1.8,0,4,0h22
		c2.2,0,4,0,4,0c0-0.002,1.8-0.002,4-0.002h11.837c2.2,0,4,0,4,0.002c0,0,1.8,0,4,0h22c2.199,0,4,0,4,0c0-0.002,1.8-0.002,4-0.002
		h11.89c2.2,0,4,0,4,0.002c0,0,1.8,0,4,0h22c2.2,0,4-1.799,4-4V26.099C472.146,23.898,470.347,22.099,468.146,22.099L468.146,22.099
		z M76.881,163.562c-2.2,0-4-1.799-4-4V44.097c0-2.2,1.8-4,4-4h11.561c2.2,0,4,1.8,4,4v115.465c0,2.201-1.8,4-4,4H76.881z
		 M126.441,163.562c-2.199,0-4-1.799-4-4V44.097c0-2.2,1.801-4,4-4h11.761c2.199,0,4,1.8,4,4v115.465c0,2.201-1.801,4-4,4H126.441z
		 M176.201,163.562c-2.2,0-4-1.799-4-4V44.097c0-2.2,1.8-4,4-4h11.838c2.199,0,4,1.8,4,4v115.465c0,2.201-1.801,4-4,4H176.201z
		 M226.039,163.562c-2.2,0-4-1.799-4-4V44.097c0-2.2,1.8-4,4-4h12.858c2.2,0,4,1.8,4,4v115.465c0,2.201-1.8,4-4,4H226.039z
		 M276.898,163.562c-2.2,0-4-1.799-4-4V44.097c0-2.2,1.8-4,4-4h11.359c2.2,0,4,1.8,4,4v115.465c0,2.201-1.8,4-4,4H276.898z
		 M326.258,163.562c-2.2,0-4-1.799-4-4V44.097c0-2.2,1.8-4,4-4h12.162c2.2,0,4,1.8,4,4v115.465c0,2.201-1.8,4-4,4H326.258z
		 M376.42,163.562c-2.2,0-4-1.799-4-4V44.097c0-2.2,1.8-4,4-4h11.837c2.2,0,4,1.8,4,4v115.465c0,2.201-1.8,4-4,4H376.42z
		 M426.257,163.562c-2.2,0-4-1.799-4-4V44.097c0-2.2,1.8-4,4-4h11.89c2.2,0,4,1.8,4,4v115.465c0,2.201-1.8,4-4,4H426.257z"/>
</g>
<g>
	<path fill="#414042" d="M515.17,177.564c0,2.201-1.802,4-4,4h-22c-2.201,0-4-1.799-4-4V5.086c0-2.2,1.799-4,4-4h22
		c2.198,0,4,1.8,4,4V177.564z"/>
</g>
<g>
	<path fill="#010101" d="M254.599,120.644c2.009-1.363,5.295-1.363,7.306,0l69.812,38.84c2.01,1.361,3.653,4.053,3.653,5.979v8.845
		c0,1.926-2.262,3.133-5.026,2.683l-36.448-5.945c-2.763-0.45-4.856,0.751-4.653,2.674l22.04,47.789
		c0.201,1.921-1.956,3.493-4.798,3.493h-94.519c-2.843,0-4.98-1.57-4.749-3.49l19.886-47.795c0.23-1.92-1.843-3.12-4.604-2.67
		l-36.345,5.941c-2.763,0.449-5.021-0.754-5.021-2.68v-8.847c0-1.926,1.644-4.615,3.65-5.979L254.599,120.644z"/>
</g>
</svg>
