<?xml version="1.0" encoding="iso-8859-1"?>
<!-- Generator: Adobe Illustrator 16.0.0, SVG Export Plug-In . SVG Version: 6.00 Build 0)  -->
<!DOCTYPE svg PUBLIC "-//W3C//DTD SVG 1.1//EN" "http://www.w3.org/Graphics/SVG/1.1/DTD/svg11.dtd">
<svg version="1.1" id="Layer_1" xmlns="http://www.w3.org/2000/svg" xmlns:xlink="http://www.w3.org/1999/xlink" x="0px" y="0px"
	 width="417.602px" height="146.672px" viewBox="5.848 270.156 417.602 146.672"
	 style="enable-background:new 5.848 270.156 417.602 146.672;" xml:space="preserve">
<g>
	<path d="M30.401,413.523c0,1.787-1.462,3.249-3.249,3.249H9.284c-1.787,0-3.249-1.462-3.249-3.249V273.428
		c0-1.787,1.462-3.249,3.249-3.249h17.868c1.787,0,3.249,1.462,3.249,3.249V413.523z"/>
</g>
<g>
	<path id="the-gate-part" d="M385.852,287.246c-1.787,0-3.25,0-3.25,0c0-0.001-1.461-0.001-3.248-0.001H148.718
		c-1.787,0-4.711,0-6.498,0h-17.87c-1.786,0-4.711,0-6.498,0H108.3c-1.787,0-4.711,0-6.498,0H83.932c-1.787,0-4.712,0-6.498,0h-9.39
		c-1.787,0-4.712,0-6.498,0h-3.909c-1.787,0-4.711,0-6.498,0h-7.461c-1.787,0-3.249,1.462-3.249,3.249v123.029
		c0,1.787,1.462,3.249,3.249,3.249h7.461c1.787,0,4.711,0,6.498,0h3.909c1.786,0,4.711,0,6.498,0h9.39c1.787,0,4.712,0,6.498,0
		h17.87c1.787,0,4.711,0,6.498,0h9.552c1.787,0,4.711,0,6.498,0h17.87c1.787,0,4.711,0,6.498,0h9.615c1.787,0,4.711,0,6.498,0h17.87
		c1.786,0,4.711,0,6.498,0h10.444c1.787,0,4.711,0,6.498,0h17.87c1.787,0,4.711,0,6.498,0h9.227c1.787,0,3.248,0,3.248,0
		s1.463,0,3.25,0h17.869c1.787,0,3.25,0,3.25,0s1.461,0,3.248,0h9.879c1.787,0,3.25,0,3.25,0.001c0,0,1.461,0,3.248,0h17.869
		c1.787,0,3.25,0,3.25,0c0-0.001,1.461-0.001,3.248-0.001h9.615c1.787,0,3.248,0,3.248,0.001c0,0,1.463,0,3.25,0h17.869
		c1.787,0,3.25,0,3.25,0c0-0.001,1.461-0.001,3.248-0.001h9.658c1.787,0,3.248,0,3.248,0.001c0,0,1.463,0,3.25,0h17.869
		c1.787,0,3.25-1.462,3.25-3.249V290.495C389.1,288.708,387.639,287.246,385.852,287.246L385.852,287.246z M68.045,402.151
		c-1.787,0-3.249-1.462-3.249-3.249v-93.788c0-1.787,1.462-3.249,3.249-3.249h9.39c1.787,0,3.249,1.462,3.249,3.249v93.788
		c0,1.787-1.462,3.249-3.249,3.249H68.045z M108.3,402.151c-1.787,0-3.249-1.462-3.249-3.249v-93.788
		c0-1.787,1.462-3.249,3.249-3.249h9.552c1.787,0,3.249,1.462,3.249,3.249v93.788c0,1.787-1.462,3.249-3.249,3.249H108.3z
		 M148.718,402.151c-1.787,0-3.249-1.462-3.249-3.249v-93.788c0-1.787,1.462-3.249,3.249-3.249h9.615
		c1.787,0,3.249,1.462,3.249,3.249v93.788c0,1.787-1.462,3.249-3.249,3.249H148.718z M189.199,402.151
		c-1.787,0-3.249-1.462-3.249-3.249v-93.788c0-1.787,1.462-3.249,3.249-3.249h10.444c1.787,0,3.249,1.462,3.249,3.249v93.788
		c0,1.787-1.462,3.249-3.249,3.249H189.199z M230.51,402.151c-1.787,0-3.25-1.462-3.25-3.249v-93.788
		c0-1.787,1.463-3.249,3.25-3.249h9.227c1.785,0,3.248,1.462,3.248,3.249v93.788c0,1.787-1.463,3.249-3.248,3.249H230.51z
		 M270.602,402.151c-1.787,0-3.248-1.462-3.248-3.249v-93.788c0-1.787,1.461-3.249,3.248-3.249h9.879c1.787,0,3.25,1.462,3.25,3.249
		v93.788c0,1.787-1.463,3.249-3.25,3.249H270.602z M311.346,402.151c-1.787,0-3.248-1.462-3.248-3.249v-93.788
		c0-1.787,1.461-3.249,3.248-3.249h9.615c1.787,0,3.248,1.462,3.248,3.249v93.788c0,1.787-1.461,3.249-3.248,3.249H311.346z
		 M351.826,402.151c-1.787,0-3.248-1.462-3.248-3.249v-93.788c0-1.787,1.461-3.249,3.248-3.249h9.658
		c1.787,0,3.248,1.462,3.248,3.249v93.788c0,1.787-1.461,3.249-3.248,3.249H351.826z"/>
</g>
<g>
	<path d="M423.262,413.524c0,1.787-1.463,3.249-3.248,3.249h-17.869c-1.789,0-3.25-1.462-3.25-3.249V273.428
		c0-1.787,1.461-3.249,3.25-3.249h17.869c1.785,0,3.248,1.462,3.248,3.249V413.524z"/>
</g>
<g>
	<path d="M212.362,287.249c1.322-1.324,3.486-1.324,4.809,0l45.959,45.991c1.322,1.323,2.404,3.937,2.404,5.808v14.101
		c0,1.871-1.488,3.043-3.308,2.605l-23.994-5.775c-1.819-0.438-3.198,0.73-3.065,2.597l3.314,46.426
		c0.133,1.866-1.288,3.393-3.159,3.393h-41.697c-1.871,0-3.278-1.525-3.126-3.391l3.762-46.43c0.151-1.865-1.213-3.031-3.032-2.593
		l-23.925,5.771c-1.819,0.438-3.307-0.732-3.307-2.604v-14.101c0-1.871,1.082-4.484,2.404-5.808L212.362,287.249z"/>
</g>
</svg>
