<?xml version="1.0" encoding="utf-8"?>
<!-- Generator: Adobe Illustrator 16.0.0, SVG Export Plug-In . SVG Version: 6.00 Build 0)  -->
<!DOCTYPE svg PUBLIC "-//W3C//DTD SVG 1.1//EN" "http://www.w3.org/Graphics/SVG/1.1/DTD/svg11.dtd">
<svg version="1.1" id="Layer_1" xmlns="http://www.w3.org/2000/svg" xmlns:xlink="http://www.w3.org/1999/xlink" x="0px" y="0px"
	 width="513.897px" height="235.819px" viewBox="1.273 1.086 513.897 235.819" enable-background="new 1.273 1.086 513.897 235.819"
	 xml:space="preserve">
<g>
	<path fill="#414042" d="M31.272,177.562c0,2.201-1.8,4-4,4H5.273c-2.198,0-4-1.799-4-4V5.086c0-2.2,1.802-4,4-4h21.999
		c2.2,0,4,1.8,4,4V177.562z"/>
</g>
<g>
	<path fill="#414042" d="M468.146,19.265c-2.2,0-4,0-4-0.001s-1.8-0.001-4-0.001H176.201c-2.2,0-5.802,0-8,0h-22c-2.2,0-5.802,0-8,0
		H126.44c-2.198,0-5.8,0-8,0h-22c-2.198,0-5.8,0-8,0H76.88c-2.2,0-5.8,0-8,0h-4.812c-2.198,0-5.8,0-8,0h-9.186c-2.2,0-4,1.8-4,4
		v151.465c0,2.201,1.8,4,4,4h9.186c2.2,0,5.802,0,8,0h4.812c2.2,0,5.8,0,8,0h11.561c2.2,0,5.802,0,8,0h22c2.2,0,5.802,0,8,0h11.762
		c2.198,0,5.8,0,8,0h22c2.198,0,5.8,0,8,0h11.838c2.198,0,5.8,0,8,0h22c2.198,0,5.8,0,8,0h12.857c2.2,0,5.8,0,8,0h22
		c2.2,0,5.8,0,8,0h11.359c2.2,0,4,0,4,0s1.8,0,4,0h22c2.2,0,4,0,4,0s1.8,0,4,0h12.162c2.2,0,4,0,4,0.002c0,0,1.8,0,4,0h22
		c2.2,0,4,0,4,0c0-0.002,1.8-0.002,4-0.002h11.837c2.2,0,4,0,4,0.002c0,0,1.8,0,4,0h22c2.198,0,4,0,4,0c0-0.002,1.8-0.002,4-0.002
		h11.89c2.2,0,4,0,4,0.002c0,0,1.8,0,4,0h22c2.2,0,4-1.799,4-4V23.265C472.146,21.063,470.347,19.265,468.146,19.265L468.146,19.265
		z M76.881,160.728c-2.2,0-4-1.799-4-4V41.263c0-2.2,1.8-4,4-4h11.561c2.2,0,4,1.8,4,4v115.465c0,2.201-1.8,4-4,4H76.881z
		 M126.441,160.728c-2.198,0-4-1.799-4-4V41.263c0-2.2,1.802-4,4-4h11.762c2.198,0,4,1.8,4,4v115.465c0,2.201-1.802,4-4,4H126.441z
		 M176.201,160.728c-2.2,0-4-1.799-4-4V41.263c0-2.2,1.8-4,4-4h11.838c2.198,0,4,1.8,4,4v115.465c0,2.201-1.802,4-4,4H176.201z
		 M226.039,160.728c-2.2,0-4-1.799-4-4V41.263c0-2.2,1.8-4,4-4h12.857c2.2,0,4,1.8,4,4v115.465c0,2.201-1.8,4-4,4H226.039z
		 M276.898,160.728c-2.2,0-4-1.799-4-4V41.263c0-2.2,1.8-4,4-4h11.359c2.2,0,4,1.8,4,4v115.465c0,2.201-1.8,4-4,4H276.898z
		 M326.258,160.728c-2.2,0-4-1.799-4-4V41.263c0-2.2,1.8-4,4-4h12.162c2.2,0,4,1.8,4,4v115.465c0,2.201-1.8,4-4,4H326.258z
		 M376.42,160.728c-2.2,0-4-1.799-4-4V41.263c0-2.2,1.8-4,4-4h11.837c2.2,0,4,1.8,4,4v115.465c0,2.201-1.8,4-4,4H376.42z
		 M426.257,160.728c-2.2,0-4-1.799-4-4V41.263c0-2.2,1.8-4,4-4h11.89c2.2,0,4,1.8,4,4v115.465c0,2.201-1.8,4-4,4H426.257z"/>
</g>
<g>
	<path fill="#414042" d="M515.17,177.564c0,2.201-1.803,4-4,4h-22c-2.201,0-4-1.799-4-4V5.086c0-2.2,1.799-4,4-4h22
		c2.197,0,4,1.8,4,4V177.564z"/>
</g>
<g>
	<path fill="#00B500" d="M251.81,120.543c3.542-2.006,9.337-2.006,12.883,0l99.098,29.838c3.544,2.003,6.441,5.961,6.441,8.794v9.73
		c0,2.833-3.989,4.608-8.862,3.946l-40.265-5.909c-4.871-0.662-8.562,1.105-8.204,3.935l35.588,58.057
		c0.354,2.824-3.449,7.972-8.462,7.972H176.632c-5.013,0-8.782-5.145-8.374-7.968l35.065-58.066
		c0.407-2.823-3.249-4.588-8.118-3.927l-40.087,5.902c-4.872,0.661-8.854-1.108-8.854-3.941v-9.734c0-2.832,2.899-6.787,6.437-8.792
		L251.81,120.543z"/>
</g>
<path fill="#00B500" d="M279.75,354"/>
</svg>
