<?xml version="1.0" encoding="utf-8"?>
<!-- Generator: Adobe Illustrator 16.0.0, SVG Export Plug-In . SVG Version: 6.00 Build 0)  -->
<!DOCTYPE svg PUBLIC "-//W3C//DTD SVG 1.1//EN" "http://www.w3.org/Graphics/SVG/1.1/DTD/svg11.dtd">
<svg version="1.1" id="Layer_1" xmlns="http://www.w3.org/2000/svg" xmlns:xlink="http://www.w3.org/1999/xlink" x="0px" y="0px"
	 width="516.5px" height="207px" viewBox="0 0 516.5 207" enable-background="new 0 0 516.5 207" xml:space="preserve">
<g>
	<path fill="#414042" d="M-911.5,77.848c0,2.2-1.8,4-4,4h-396.078c-2.2,0-4-1.8-4-4v-10c0-2.2,1.8-4,4-4H-915.5c2.2,0,4,1.8,4,4
		V77.848z"/>
</g>
<g>
	<path fill="#414042" d="M-914.875,219.314c0,2.2-1.8,4-4,4h-392.703c-2.2,0-4-1.8-4-4v-10c0-2.2,1.8-4,4-4h392.703c2.2,0,4,1.8,4,4
		V219.314z"/>
</g>
<g>
	<path fill="#414042" d="M-1302.765,219.314c0,2.201-1.8,4-4,4h-21.999c-2.2,0-4-1.799-4-4V67.848c0-2.2,1.8-4,4-4h21.999
		c2.2,0,4,1.8,4,4V219.314z"/>
</g>
<g>
	<path fill="#414042" d="M-1344.374,219.314c0,2.2-1.8,4-4,4h-21.999c-2.2,0-4-1.8-4-4V46.837c0-2.2,1.8-4,4-4h21.999
		c2.2,0,4,1.8,4,4V219.314z"/>
</g>
<g>
	<path fill="#414042" d="M-1253.206,219.314c0,2.2-1.8,4-4,4h-22c-2.2,0-4-1.8-4-4V67.848c0-2.2,1.8-4,4-4h22c2.2,0,4,1.8,4,4
		V219.314z"/>
</g>
<g>
	<path fill="#414042" d="M-1203.445,219.314c0,2.2-1.8,4-4,4h-22c-2.2,0-4-1.8-4-4V67.848c0-2.2,1.8-4,4-4h22c2.2,0,4,1.8,4,4
		V219.314z"/>
</g>
<g>
	<path fill="#414042" d="M-1153.608,219.314c0,2.201-1.8,4-4,4h-22c-2.2,0-4-1.799-4-4V67.849c0-2.2,1.8-4,4-4h22c2.2,0,4,1.8,4,4
		V219.314z"/>
</g>
<g>
	<path fill="#414042" d="M-1102.748,219.314c0,2.201-1.8,4-4,4h-22c-2.2,0-4-1.799-4-4V67.849c0-2.2,1.8-4,4-4h22c2.2,0,4,1.8,4,4
		V219.314z"/>
</g>
<g>
	<path fill="#414042" d="M-1053.389,219.315c0,2.2-1.8,4-4,4h-22c-2.2,0-4-1.8-4-4V67.85c0-2.2,1.8-4,4-4h22c2.2,0,4,1.8,4,4
		V219.315z"/>
</g>
<g>
	<path fill="#414042" d="M-1003.227,219.316c0,2.199-1.8,4-4,4h-22c-2.2,0-4-1.801-4-4V67.85c0-2.2,1.8-4,4-4h22c2.2,0,4,1.8,4,4
		V219.316z"/>
</g>
<g>
	<path fill="#414042" d="M-953.39,219.316c0,2.199-1.8,4-4,4h-22c-2.2,0-4-1.801-4-4V67.85c0-2.2,1.8-4,4-4h22c2.2,0,4,1.8,4,4
		V219.316z"/>
</g>
<g>
	<path fill="#414042" d="M-903.5,219.316c0,2.199-1.8,4-4,4h-22c-2.2,0-4-1.801-4-4V67.85c0-2.2,1.8-4,4-4h22c2.2,0,4,1.8,4,4
		V219.316z"/>
</g>
<g>
	<path fill="#414042" d="M-860.477,219.316c0,2.2-1.8,4-4,4h-22c-2.2,0-4-1.8-4-4V46.837c0-2.2,1.8-4,4-4h22c2.2,0,4,1.8,4,4
		V219.316z"/>
</g>
<g>
	<path fill="#414042" d="M-435,365.848c0,2.2-1.8,4-4,4h-386.578c-2.2,0-4-1.8-4-4v-10c0-2.2,1.8-4,4-4H-439c2.2,0,4,1.8,4,4
		V365.848z"/>
</g>
<g>
	<path fill="#414042" d="M-432.5,507.314c0,2.2-1.8,4-4,4h-389.078c-2.2,0-4-1.8-4-4v-10c0-2.2,1.8-4,4-4H-436.5c2.2,0,4,1.8,4,4
		V507.314z"/>
</g>
<g>
	<path fill="#414042" d="M-816.765,507.314c0,2.201-1.8,4-4,4h-21.999c-2.2,0-4-1.799-4-4V355.848c0-2.199,1.8-4,4-4h21.999
		c2.2,0,4,1.801,4,4V507.314z"/>
</g>
<g>
	<path fill="#414042" d="M-1344.374,507.314c0,2.2-1.8,4-4,4h-21.999c-2.2,0-4-1.8-4-4V334.838c0-2.201,1.8-4,4-4h21.999
		c2.2,0,4,1.799,4,4V507.314z"/>
</g>
<g>
	<path fill="#414042" d="M-767.205,507.314c0,2.2-1.801,4-4,4h-22c-2.201,0-4-1.8-4-4V355.848c0-2.199,1.799-4,4-4h22
		c2.199,0,4,1.801,4,4V507.314z"/>
</g>
<g>
	<path fill="#414042" d="M-717.445,507.314c0,2.2-1.799,4-4,4h-22c-2.199,0-4-1.8-4-4V355.848c0-2.199,1.801-4,4-4h22
		c2.201,0,4,1.801,4,4V507.314z"/>
</g>
<g>
	<path fill="#414042" d="M-667.607,507.314c0,2.201-1.801,4-4,4h-22c-2.201,0-4-1.799-4-4V355.849c0-2.2,1.799-4,4-4h22
		c2.199,0,4,1.8,4,4V507.314z"/>
</g>
<g>
	<path fill="#414042" d="M-616.748,507.314c0,2.201-1.799,4-4,4h-22c-2.199,0-4-1.799-4-4V355.849c0-2.2,1.801-4,4-4h22
		c2.201,0,4,1.8,4,4V507.314z"/>
</g>
<g>
	<path fill="#414042" d="M-567.389,507.315c0,2.2-1.801,4-4,4h-22c-2.201,0-4-1.8-4-4V355.85c0-2.2,1.799-4,4-4h22
		c2.199,0,4,1.8,4,4V507.315z"/>
</g>
<g>
	<path fill="#414042" d="M-517.227,507.316c0,2.199-1.8,4-4,4h-22c-2.2,0-4-1.801-4-4V355.85c0-2.199,1.8-4,4-4h22
		c2.2,0,4,1.801,4,4V507.316z"/>
</g>
<g>
	<path fill="#414042" d="M-467.39,507.316c0,2.199-1.8,4-4,4h-22c-2.2,0-4-1.801-4-4V355.85c0-2.199,1.8-4,4-4h22c2.2,0,4,1.801,4,4
		V507.316z"/>
</g>
<g>
	<path fill="#414042" d="M-417.5,507.316c0,2.199-1.801,4-4,4h-22c-2.201,0-4-1.801-4-4V355.85c0-2.199,1.799-4,4-4h22
		c2.199,0,4,1.801,4,4V507.316z"/>
</g>
<g>
	<path fill="#414042" d="M-860.477,507.316c0,2.2-1.8,4-4,4h-22c-2.2,0-4-1.8-4-4V334.838c0-2.201,1.8-4,4-4h22c2.2,0,4,1.799,4,4
		V507.316z"/>
</g>
<g>
	<path fill="#414042" d="M31.272,177.563c0,2.2-1.8,4-4,4H5.273c-2.2,0-4-1.8-4-4V5.086c0-2.2,1.8-4,4-4h21.999c2.2,0,4,1.8,4,4
		V177.563z"/>
</g>
<g>
	<path fill="#414042" d="M468.146,22.099c-2.2,0-4,0-4-0.001s-1.8-0.001-4-0.001H176.201c-2.2,0-5.8,0-8,0h-22c-2.2,0-5.8,0-8,0
		h-11.76c-2.2,0-5.8,0-8,0h-22c-2.2,0-5.8,0-8,0H76.881c-2.2,0-5.8,0-8,0h-4.812c-2.2,0-5.8,0-8,0h-9.186c-2.2,0-4,1.8-4,4v151.466
		c0,2.2,1.8,4,4,4h9.186c2.2,0,5.8,0,8,0h4.812c2.2,0,5.8,0,8,0h11.561c2.2,0,5.8,0,8,0h22c2.2,0,5.8,0,8,0h11.76c2.2,0,5.8,0,8,0
		h22c2.2,0,5.8,0,8,0h11.838c2.2,0,5.8,0,8,0h22c2.2,0,5.8,0,8,0h12.859c2.2,0,5.8,0,8,0h22c2.2,0,5.8,0,8,0h11.359c2.2,0,4,0,4,0
		s1.8,0,4,0h22c2.2,0,4,0,4,0s1.8,0,4,0h12.162c2.2,0,4,0,4,0.001s1.8,0.001,4,0.001h22c2.2,0,4,0,4-0.001s1.8-0.001,4-0.001h11.837
		c2.2,0,4,0,4,0.001s1.8,0.001,4,0.001h22c2.2,0,4,0,4-0.001s1.8-0.001,4-0.001h11.89c2.2,0,4,0,4,0.001s1.8,0.001,4,0.001h22
		c2.2,0,4-1.8,4-4V26.099C472.146,23.898,470.347,22.099,468.146,22.099L468.146,22.099z M76.881,163.563c-2.2,0-4-1.8-4-4V44.097
		c0-2.2,1.8-4,4-4h11.561c2.2,0,4,1.8,4,4v115.466c0,2.2-1.8,4-4,4H76.881z M126.441,163.563c-2.2,0-4-1.8-4-4V44.097
		c0-2.2,1.8-4,4-4h11.76c2.2,0,4,1.8,4,4v115.466c0,2.2-1.8,4-4,4H126.441z M176.201,163.563c-2.2,0-4-1.8-4-4V44.097
		c0-2.2,1.8-4,4-4h11.838c2.2,0,4,1.8,4,4v115.466c0,2.2-1.8,4-4,4H176.201z M226.039,163.563c-2.2,0-4-1.8-4-4V44.097
		c0-2.2,1.8-4,4-4h12.859c2.2,0,4,1.8,4,4v115.466c0,2.2-1.8,4-4,4H226.039z M276.898,163.563c-2.2,0-4-1.8-4-4V44.097
		c0-2.2,1.8-4,4-4h11.359c2.2,0,4,1.8,4,4v115.466c0,2.2-1.8,4-4,4H276.898z M326.258,163.563c-2.2,0-4-1.8-4-4V44.097
		c0-2.2,1.8-4,4-4h12.162c2.2,0,4,1.8,4,4v115.466c0,2.2-1.8,4-4,4H326.258z M376.42,163.563c-2.2,0-4-1.8-4-4V44.097
		c0-2.2,1.8-4,4-4h11.837c2.2,0,4,1.8,4,4v115.466c0,2.2-1.8,4-4,4H376.42z M426.257,163.563c-2.2,0-4-1.8-4-4V44.097
		c0-2.2,1.8-4,4-4h11.89c2.2,0,4,1.8,4,4v115.466c0,2.2-1.8,4-4,4H426.257z"/>
</g>
<g>
	<path fill="#414042" d="M515.17,177.565c0,2.2-1.801,4-4,4h-22c-2.201,0-4-1.8-4-4V5.086c0-2.2,1.799-4,4-4h22c2.199,0,4,1.8,4,4
		V177.565z"/>
</g>
<g>
	<path fill="#010101" d="M254.599,53.399c2.009-1.713,5.295-1.713,7.306,0l69.812,59.487c2.01,1.711,3.653,5.093,3.653,7.512v18.239
		c0,2.419-2.261,3.935-5.026,3.37l-36.448-7.47c-2.763-0.566-4.857,0.944-4.654,3.36l5.031,60.047
		c0.201,2.413-1.956,4.389-4.798,4.389h-63.337c-2.843,0-4.981-1.973-4.749-4.386l5.714-60.055c0.23-2.412-1.843-3.92-4.605-3.354
		l-36.344,7.466c-2.763,0.565-5.022-0.948-5.022-3.367v-18.24c0-2.42,1.644-5.8,3.65-7.513L254.599,53.399z"/>
</g>
<g>
</g>
<g>
</g>
<g>
</g>
<g>
</g>
<g>
</g>
<g>
</g>
</svg>
