<svg version="1.1" viewBox="0 0 263 263">
<path fill="#FFFFFF" d="M259.065,57.043c2.2,0,4-1.697,4-3.772V39.105c0-2.075-1.8-3.772-4-3.772H229.01
  c-0.004,0-0.008-0.001-0.011-0.001h-22.646c-0.004,0-0.007,0.001-0.01,0.001h-27.149c-0.001,0-0.003,0-0.005,0h-22.646
  c-0.002,0-0.004,0-0.005,0h-25.923c-0.003,0-0.006-0.001-0.01-0.001h-22.645c-2.2,0-4,1.697-4,3.772v77.807L70.446,83.9
  c-1.632-1.607-4.841-2.923-7.132-2.923H50.512c-2.291,0-3.406,1.714-2.479,3.809l12.604,28.485c0.926,2.095-0.189,3.809-2.48,3.809
  H4.165c-2.291,0-4.165,1.874-4.165,4.165v20.581c0,2.291,1.874,4.165,4.165,4.165h53.991c2.291,0,3.405,1.713,2.478,3.808
  l-12.599,28.416c-0.929,2.094,0.186,3.808,2.477,3.808h12.803c2.291,0,5.502-1.313,7.136-2.918l33.511-32.916v77.707
  c0,2.075,1.8,3.772,4,3.772h17.557h5.088h25.938h22.646h27.164h22.646h30.066c2.2,0,4-1.697,4-3.772v-14.166
  c0-2.075-1.8-3.772-4-3.772h-26.066V57.043H259.065z M134.605,57.043h17.938v148.914h-17.938V57.043z M202.354,205.957h-19.164
  V57.043h19.164V205.957z"/>
</svg>