<?xml version="1.0" encoding="iso-8859-1"?>
<!-- Generator: Adobe Illustrator 16.0.0, SVG Export Plug-In . SVG Version: 6.00 Build 0)  -->
<!DOCTYPE svg PUBLIC "-//W3C//DTD SVG 1.1//EN" "http://www.w3.org/Graphics/SVG/1.1/DTD/svg11.dtd">
<svg version="1.1" id="Layer_1" xmlns="http://www.w3.org/2000/svg" xmlns:xlink="http://www.w3.org/1999/xlink" x="0px" y="0px"
	 width="516px" height="183px" viewBox="-258.699 279.336 516 183" style="enable-background:new -258.699 279.336 516 183;"
	 xml:space="preserve">
<g>
	<path d="M-228.411,457.407c0,2.208-1.807,4.015-4.016,4.015h-22.082c-2.209,0-4.016-1.807-4.016-4.015V284.263
		c0-2.208,1.807-4.015,4.016-4.015h22.082c2.209,0,4.016,1.807,4.016,4.015V457.407z"/>
</g>
<g>
	<path id="the-gate-part" d="M210.891,301.341c-2.209,0-4.017,0-4.017,0c0-0.001-1.805-0.001-4.014-0.001H-82.182
		c-2.209,0-5.822,0-8.031,0h-22.085c-2.208,0-5.822,0-8.031,0h-11.805c-2.209,0-5.822,0-8.031,0h-22.085c-2.209,0-5.824,0-8.031,0
		h-11.604c-2.209,0-5.823,0-8.031,0h-4.831c-2.209,0-5.822,0-8.031,0h-9.221c-2.208,0-4.015,1.807-4.015,4.016v152.052
		c0,2.208,1.807,4.015,4.015,4.015h9.221c2.209,0,5.822,0,8.031,0h4.831c2.208,0,5.822,0,8.031,0h11.604c2.209,0,5.823,0,8.031,0
		h22.085c2.209,0,5.822,0,8.031,0h11.805c2.208,0,5.822,0,8.031,0h22.085c2.209,0,5.822,0,8.031,0h11.883c2.209,0,5.822,0,8.031,0
		h22.085c2.207,0,5.822,0,8.031,0h12.907c2.208,0,5.822,0,8.031,0h22.085c2.208,0,5.822,0,8.031,0h11.403c2.209,0,4.014,0,4.014,0
		s1.808,0,4.017,0h22.084c2.209,0,4.017,0,4.017,0s1.806,0,4.015,0h12.209c2.209,0,4.017,0,4.017,0.002c0,0,1.806,0,4.015,0h22.084
		c2.209,0,4.017,0,4.017,0c0-0.002,1.806-0.002,4.015-0.002h11.882c2.209,0,4.015,0,4.015,0.002c0,0,1.809,0,4.017,0h22.084
		c2.209,0,4.017,0,4.017,0c0-0.002,1.806-0.002,4.014-0.002h11.937c2.209,0,4.014,0,4.014,0.002c0,0,1.808,0,4.017,0h22.084
		c2.209,0,4.018-1.809,4.018-4.017V305.356C214.906,303.147,213.1,301.341,210.891,301.341L210.891,301.341z M-181.886,443.351
		c-2.208,0-4.015-1.806-4.015-4.015V323.423c0-2.207,1.807-4.015,4.015-4.015h11.604c2.209,0,4.016,1.808,4.016,4.015v115.913
		c0,2.209-1.807,4.015-4.016,4.015H-181.886z M-132.135,443.351c-2.209,0-4.016-1.806-4.016-4.015V323.423
		c0-2.207,1.807-4.015,4.016-4.015h11.805c2.208,0,4.016,1.808,4.016,4.015v115.913c0,2.209-1.807,4.015-4.016,4.015H-132.135z
		 M-82.182,443.351c-2.209,0-4.016-1.806-4.016-4.015V323.423c0-2.207,1.807-4.015,4.016-4.015h11.883
		c2.209,0,4.016,1.808,4.016,4.015v115.913c0,2.209-1.807,4.015-4.016,4.015H-82.182z M-32.152,443.351
		c-2.209,0-4.016-1.806-4.016-4.015V323.423c0-2.207,1.807-4.015,4.016-4.015h12.907c2.208,0,4.015,1.808,4.015,4.015v115.913
		c0,2.209-1.807,4.015-4.015,4.015H-32.152z M18.904,443.351c-2.208,0-4.017-1.806-4.017-4.015V323.423
		c0-2.207,1.808-4.015,4.017-4.015h11.403c2.207,0,4.015,1.808,4.015,4.015v115.913c0,2.209-1.808,4.015-4.015,4.015H18.904z
		 M68.453,443.351c-2.209,0-4.014-1.806-4.014-4.015V323.423c0-2.207,1.805-4.015,4.014-4.015h12.209
		c2.209,0,4.017,1.808,4.017,4.015v115.913c0,2.209-1.808,4.015-4.017,4.015H68.453z M118.809,443.351
		c-2.209,0-4.014-1.806-4.014-4.015V323.423c0-2.207,1.805-4.015,4.014-4.015h11.883c2.208,0,4.015,1.808,4.015,4.015v115.913
		c0,2.209-1.807,4.015-4.015,4.015H118.809z M168.837,443.351c-2.208,0-4.014-1.806-4.014-4.015V323.423
		c0-2.207,1.806-4.015,4.014-4.015h11.937c2.209,0,4.015,1.808,4.015,4.015v115.913c0,2.209-1.806,4.015-4.015,4.015H168.837z"/>
</g>
<g>
	<path d="M257.125,457.407c0,2.208-1.808,4.017-4.014,4.017h-22.084c-2.212,0-4.018-1.809-4.018-4.017V284.263
		c0-2.208,1.806-4.015,4.018-4.015h22.084c2.206,0,4.014,1.807,4.014,4.015V457.407z"/>
</g>
<g>
	<path d="M-3.526,301.345c1.634-1.638,4.309-1.638,5.944,0l56.8,56.84c1.634,1.635,2.972,4.866,2.972,7.178v17.428
		c0,2.312-1.839,3.76-4.089,3.22l-29.654-7.138c-2.247-0.541-3.952,0.902-3.787,3.211l4.095,57.376
		c0.164,2.306-1.592,4.193-3.904,4.193h-51.532c-2.313,0-4.052-1.885-3.864-4.19l4.649-57.383c0.187-2.305-1.5-3.746-3.748-3.205
		l-29.569,7.134c-2.249,0.54-4.087-0.906-4.087-3.218v-17.429c0-2.312,1.337-5.542,2.97-7.179L-3.526,301.345z"/>
</g>
</svg>
