<?xml version="1.0" encoding="utf-8"?>
<!-- Generator: Adobe Illustrator 16.0.0, SVG Export Plug-In . SVG Version: 6.00 Build 0)  -->
<!DOCTYPE svg PUBLIC "-//W3C//DTD SVG 1.1//EN" "http://www.w3.org/Graphics/SVG/1.1/DTD/svg11.dtd">
<svg version="1.1" xmlns="http://www.w3.org/2000/svg" xmlns:xlink="http://www.w3.org/1999/xlink" x="0px" y="0px" width="612px"
	 height="401.31px" viewBox="0 0 612 401.31" enable-background="new 0 0 612 401.31" xml:space="preserve">
<g id="Layer_2">
	<polygon fill="#FFDCAE" stroke="#706366" stroke-miterlimit="10" points="150.756,472.846 52.211,648.902 263.479,486.226 	"/>
	<polygon fill="#FECD8A" stroke="#706366" stroke-miterlimit="10" points="247.985,490.451 21.929,666.508 189.535,689.747 	"/>
	<polygon fill="#FDBE68" stroke="#706366" stroke-miterlimit="10" points="186.014,679.184 247.985,468.62 326.154,733.409 	"/>
	<polygon fill="#FBB040" stroke="#706366" stroke-miterlimit="10" points="309.253,717.916 239.535,455.24 351.507,468.62 	"/>
	<polygon fill="#C69959" stroke="#706366" stroke-miterlimit="10" points="301.506,712.986 447.985,490.451 340.943,472.846 	"/>
	<polygon fill="#937D5C" stroke="#706366" stroke-miterlimit="10" points="295.521,701.015 463.479,717.916 438.83,494.677 	"/>
	<polygon fill="#635A4F" stroke="#706366" stroke-miterlimit="10" points="455.027,706.648 605.027,601.015 429.676,468.62 	"/>
</g>
<g id="Layer_1">
	<g>
		<polygon fill="#FFDCAE" stroke="#706366" stroke-miterlimit="10" points="142.573,83.704 44.028,259.76 255.296,97.084 		"/>
		<polygon fill="#FECD8A" stroke="#706366" stroke-miterlimit="10" points="239.803,101.31 13.747,277.366 181.352,300.605 		"/>
		<polygon fill="#FDBE68" stroke="#706366" stroke-miterlimit="10" points="177.831,290.042 239.803,79.479 317.972,344.268 		"/>
		<polygon fill="#FBB040" stroke="#706366" stroke-miterlimit="10" points="301.07,328.774 231.352,66.099 343.324,79.479 		"/>
		<polygon fill="#C69959" stroke="#706366" stroke-miterlimit="10" points="293.324,323.845 439.803,101.31 332.761,83.704 		"/>
		<polygon fill="#937D5C" stroke="#706366" stroke-miterlimit="10" points="287.338,311.873 455.296,328.774 430.647,105.535 		"/>
		<polygon fill="#635A4F" stroke="#706366" stroke-miterlimit="10" points="446.845,317.507 596.845,211.873 421.493,79.479 		"/>
	</g>
	<g>
		<g>
			<path fill="#FFFFFF" stroke="#A2A3A4" stroke-miterlimit="10" d="M141.997,129.868H126.5c-1.55,0-2.818,1.268-2.818,2.818v121.5
				c0,1.551,1.269,2.818,2.818,2.818h15.497c1.55,0,2.818-1.268,2.818-2.818v-121.5
				C144.814,131.136,143.546,129.868,141.997,129.868z"/>
			<path fill="#FFFFFF" stroke="#A2A3A4" stroke-miterlimit="10" d="M452.568,144.67h-5.621c-0.006,0-0.01-0.001-0.016-0.001
				H241.273h-15.498H206.22h-15.498h-19.415h-3.39h-12.106c-1.55,0-2.818,1.268-2.818,2.817v106.699
				c0,1.551,1.268,2.818,2.818,2.818h12.106h3.39h19.415h15.498h19.555h15.498h19.61h15.498h20.33h15.498h19.266
				c0.002,0,0.004,0.002,0.006,0.002h15.498c0.002,0,0.006-0.002,0.008-0.002h19.818c0.004,0,0.01,0.002,0.014,0.002h15.498
				c0.004,0,0.01-0.002,0.014-0.002h19.582c0.006,0,0.008,0.002,0.014,0.002h15.498c0.004,0,0.008-0.002,0.014-0.002h19.619
				c0.004,0,0.008,0.002,0.014,0.002h15.498c1.551,0,2.816-1.268,2.816-2.817V147.488
				C455.385,145.938,454.119,144.67,452.568,144.67z M187.904,244.324h-13.779v-86.975h13.779V244.324z M222.958,244.324h-13.919
				v-86.975h13.919V244.324z M258.065,244.324h-13.975v-86.975h13.975V244.324z M293.894,244.324h-14.695v-86.975h14.695V244.324z
				 M328.664,244.324h-13.637v-86.975h13.637V244.324z M364,244.324h-14.203v-86.975H364V244.324z M399.107,244.324h-13.975v-86.975
				h13.975V244.324z M434.252,244.324h-14.01v-86.975h14.01V244.324z"/>
			<path fill="#FFFFFF" stroke="#A2A3A4" stroke-miterlimit="10" d="M482.875,129.868h-15.496c-1.551,0-2.818,1.268-2.818,2.818
				v121.503c0,1.55,1.268,2.817,2.818,2.817h15.496c1.551,0,2.818-1.268,2.818-2.817V132.686
				C485.693,131.136,484.426,129.868,482.875,129.868z"/>
		</g>
	</g>
	<g>
	</g>
	<g>
	</g>
	<g>
	</g>
	<g>
	</g>
	<g>
	</g>
	<g>
	</g>
</g>
</svg>
